<svg width="175" height="51" viewBox="0 0 175 51" fill="none" xmlns="http://www.w3.org/2000/svg">
<path d="M0 10C0 4.47715 4.47715 0 10 0H51V41C51 46.5228 46.5228 51 41 51H0V10Z" fill="url(#paint0_linear_62_49)"/>
<path fill-rule="evenodd" clip-rule="evenodd" d="M20.2425 13.0947C20.3795 12.1082 20.3792 12.1081 20.379 12.1081L20.2425 13.0947ZM37.3469 37.5185L37.3496 37.514L37.3566 37.5021L37.3817 37.4596C37.403 37.4232 37.4333 37.3711 37.4703 37.3064C37.5441 37.1772 37.6456 36.9962 37.7567 36.7878C37.9719 36.384 38.2493 35.829 38.4186 35.341C38.649 34.6769 38.782 33.8412 38.8582 33.2212C38.8976 32.9012 38.9242 32.6185 38.9409 32.4155C38.9493 32.3137 38.9553 32.2314 38.9593 32.1738L38.9637 32.1062L38.9648 32.0874L38.9651 32.082L38.9653 32.0792L39 31.462L32.9145 27.9658L28.9242 29.0497C28.8859 29.0541 28.831 29.0602 28.7629 29.067C28.6173 29.0815 28.4139 29.0989 28.1842 29.1104C27.7003 29.1347 27.1909 29.1277 26.8512 29.0554C26.0549 28.8859 25.1303 28.1173 24.3162 27.194C23.9325 26.7589 23.6124 26.335 23.388 26.0191C23.2763 25.8618 23.1894 25.7329 23.1314 25.6448C23.1024 25.6008 23.0807 25.5671 23.0668 25.5452L23.0518 25.5216L23.0485 25.5164L23.0414 25.5048L23.0346 25.4945L23.0339 25.4935L23.0305 25.4882C23.0261 25.4813 23.0184 25.4691 23.0079 25.452C22.9868 25.4178 22.9547 25.3643 22.9151 25.2943C22.8356 25.1537 22.7284 24.9505 22.6213 24.7069C22.3994 24.2023 22.2135 23.6031 22.2135 23.0568C22.2135 22.8895 22.2733 22.6373 22.4276 22.3058C22.5771 21.9847 22.7859 21.6511 23.0105 21.339C23.233 21.0297 23.4577 20.7598 23.6276 20.5666C23.712 20.4705 23.7817 20.3949 23.8291 20.3444C23.8527 20.3192 23.8708 20.3003 23.8822 20.2885L23.8943 20.276L23.8965 20.2738L24.3817 19.7833L20.9119 12.1837L20.379 12.1081L20.3771 12.1078L20.3732 12.1073L20.3613 12.1057L20.3207 12.1004C20.2865 12.096 20.2381 12.0901 20.177 12.0833C20.0551 12.0698 19.8822 12.0528 19.6713 12.0376C19.2514 12.0075 18.6711 11.9841 18.0362 12.0136C17.4059 12.0428 16.692 12.1253 16.0163 12.3202C15.3494 12.5126 14.6415 12.8369 14.1078 13.4047C13.3483 14.2128 13.0637 15.3373 12.9454 16.1199C12.8831 16.5324 12.8599 16.9009 12.852 17.1665C12.848 17.3001 12.8479 17.4095 12.8489 17.4878C12.8493 17.527 12.8501 17.5586 12.8508 17.5815L12.8517 17.6096L12.8521 17.6186L12.8522 17.6218L12.8523 17.6237L12.8531 17.6404L12.8544 17.6574L12.855 17.6645L12.8566 17.6844L12.8628 17.7586C12.8683 17.8225 12.8764 17.9145 12.8872 18.0288C12.9086 18.2572 12.9407 18.5757 12.9832 18.9374C13.0668 19.6495 13.1955 20.5712 13.3723 21.3012C13.5859 22.1834 13.9788 23.2359 14.3028 24.0386C14.4674 24.4463 14.6193 24.8019 14.7302 25.0558C14.7857 25.1829 14.831 25.2849 14.8628 25.3557L14.8997 25.4376L14.9097 25.4596L14.9136 25.4681L14.9238 25.4903L14.9349 25.5118L15.8077 25.0492C14.9349 25.5118 14.9354 25.5126 14.9354 25.5127L14.9397 25.5209L14.9519 25.5444L14.998 25.6318C15.0379 25.7071 15.0957 25.8155 15.1685 25.9497C15.3139 26.2179 15.5198 26.5904 15.7623 27.009C16.2404 27.8342 16.8865 28.8837 17.5038 29.6588C18.5265 30.9429 20.0869 32.249 21.3406 33.2069C21.9768 33.6929 22.552 34.1027 22.9685 34.3913C23.1769 34.5358 23.3461 34.6502 23.464 34.729C23.523 34.7684 23.5691 34.799 23.601 34.8199L23.6378 34.8441L23.6478 34.8506L23.6518 34.8533L23.6646 34.8616L23.6782 34.8698L23.7158 34.8926L23.8234 34.9575C23.9165 35.0135 24.0504 35.094 24.2146 35.192C24.5428 35.3879 24.9929 35.6546 25.4798 35.9374C26.4301 36.4893 27.5924 37.1446 28.231 37.4213C28.8352 37.683 29.8301 38.0697 30.8828 38.3928C31.9102 38.7081 33.096 38.9961 34.0394 38.9961C35.0401 38.9961 35.827 38.6788 36.3622 38.3605C36.6293 38.2017 36.8365 38.0412 36.9813 37.9157C37.0539 37.8528 37.1115 37.7981 37.1538 37.7559C37.175 37.7348 37.1925 37.7168 37.2061 37.7023L37.2237 37.6834L37.2304 37.676L37.2332 37.6729L37.2351 37.6708L37.2982 37.5999L37.3469 37.5185ZM37.3469 37.5185L36.5031 37.0037C37.3465 37.5191 37.3468 37.5185 37.3469 37.5185ZM36.5031 37.0037L37.2351 37.6708C37.2354 37.6705 37.2357 37.6701 36.5031 37.0037ZM24.1845 34.0151L23.6518 34.8533C23.6519 34.8533 23.652 34.8534 24.1845 34.0151ZM14.9136 25.4681C14.9137 25.4682 14.9137 25.4683 15.8077 25.0492L14.9136 25.4681ZM12.8544 17.6574L13.8368 17.5776C12.8544 17.6566 12.8544 17.6573 12.8544 17.6574ZM13.8368 17.5776L12.8523 17.6237C12.8523 17.6239 12.8523 17.6242 13.8368 17.5776ZM14.8208 17.519C14.8205 17.5072 14.82 17.4884 14.8197 17.4632C14.819 17.4099 14.819 17.3287 14.8221 17.2262C14.8282 17.0198 14.8464 16.7346 14.8938 16.4208C14.9951 15.7507 15.2032 15.1319 15.5367 14.7771C15.735 14.5661 16.0706 14.3765 16.5573 14.2361C17.0352 14.0982 17.5849 14.029 18.1266 14.0039C18.6637 13.979 19.164 13.9986 19.5316 14.025L19.5836 14.0289L22.0299 19.3867C21.8498 19.5979 21.6338 19.865 21.4165 20.1671C21.1482 20.5399 20.8643 20.9846 20.6442 21.4574C20.429 21.9197 20.2425 22.4769 20.2425 23.0568C20.2425 24.0047 20.5493 24.8999 20.8202 25.5161C20.9594 25.8328 21.0985 26.0966 21.2038 26.2828C21.2567 26.3763 21.3015 26.4512 21.3344 26.5046C21.3508 26.5313 21.3643 26.5527 21.3743 26.5683L21.3847 26.5845L21.3877 26.5893L21.41 26.6245C21.4289 26.6542 21.456 26.6962 21.4907 26.7489C21.5601 26.8542 21.6602 27.0027 21.7871 27.1813C22.0399 27.5372 22.4033 28.019 22.8449 28.5197C23.6813 29.4683 24.974 30.692 26.4452 31.0051C27.047 31.1332 27.7695 31.1261 28.2821 31.1004C28.5506 31.0869 28.7866 31.0667 28.9559 31.0499C29.0407 31.0414 29.1095 31.0337 29.158 31.0281L29.2152 31.0212L29.2315 31.0191L29.2365 31.0185L29.2381 31.0183C29.2382 31.0182 29.2392 31.0181 29.1127 30.0359L29.2392 31.0181L29.3043 31.0096L32.6443 30.1023L36.9471 32.5743C36.9348 32.6966 36.92 32.832 36.9023 32.9753C36.8291 33.5706 36.7157 34.2292 36.5587 34.6816C36.4432 35.0145 36.2278 35.4556 36.0215 35.8429C35.9218 36.0299 35.8303 36.1931 35.7639 36.3093L35.7217 36.3826L35.6986 36.403C35.6278 36.4643 35.5147 36.5529 35.3629 36.6431C35.0605 36.823 34.6155 37.0037 34.0394 37.0037C33.406 37.0037 32.4566 36.7936 31.4555 36.4863C30.4797 36.1868 29.5529 35.8263 29.0074 35.5899C28.4962 35.3685 27.4412 34.7786 26.4616 34.2097C25.9835 33.9321 25.5405 33.6696 25.2168 33.4764C25.0551 33.3798 24.9234 33.3007 24.8323 33.2459L24.7274 33.1826L24.7051 33.1691L24.6766 33.1504C24.6485 33.1319 24.6062 33.1039 24.5514 33.0672C24.4416 32.9938 24.2814 32.8856 24.0828 32.7479C23.6851 32.4724 23.1355 32.0808 22.5291 31.6174C21.2975 30.6764 19.9014 29.492 19.0391 28.4093C18.518 27.755 17.9323 26.812 17.4631 26.0021C17.232 25.6033 17.0354 25.2476 16.8968 24.9919C16.8275 24.8642 16.7729 24.7618 16.7358 24.6918L16.6939 24.6121L16.6918 24.6081L16.6912 24.6067L16.6578 24.5327C16.6285 24.4675 16.5859 24.3717 16.5333 24.2513C16.4281 24.0104 16.2838 23.6724 16.1277 23.2858C15.8103 22.4996 15.464 21.5597 15.2867 20.8275C15.14 20.2215 15.0223 19.3999 14.9404 18.7026C14.9002 18.3596 14.8697 18.057 14.8493 17.8403C14.8392 17.7321 14.8315 17.6457 14.8265 17.5867L14.8208 17.519ZM32.0684 15.2366H33.0539V13.8917L31.5757 12.9951V12.0985H30.5902V12.9951L29.1119 13.8917V16.1331L30.5902 17.0297L31.5757 17.478V18.8229H30.5902L30.0974 17.9263H29.1119V19.2712L30.5902 20.1678V21.0644H31.5757V20.1678L33.0539 19.2712V17.478L32.0684 16.5814L30.5902 15.6849V14.34H31.5757L32.0684 15.2366ZM31.9552 27.0346L36.8128 20.1485L35.208 18.9917L31.6326 24.0601L29.4913 22.1113L26.0521 26.4157L27.5854 27.6676L29.718 24.9985L31.9552 27.0346ZM19.2858 34.8841L16.1976 30.7219L12 37.9961L13.7025 39L16.4033 34.3197L19.2281 38.1272L21.6156 35.1392L20.0823 33.8872L19.2858 34.8841Z" fill="white"/>
<path d="M64.4347 32.5V17.9545H69.8892C71.0066 17.9545 71.9441 18.1629 72.7017 18.5795C73.464 18.9962 74.0393 19.5691 74.4276 20.2983C74.8205 21.0227 75.017 21.8466 75.017 22.7699C75.017 23.7027 74.8205 24.5312 74.4276 25.2557C74.0346 25.9801 73.4545 26.5507 72.6875 26.9673C71.9205 27.3793 70.9759 27.5852 69.8537 27.5852H66.2386V25.419H69.4986C70.152 25.419 70.687 25.3054 71.1037 25.0781C71.5204 24.8509 71.8281 24.5384 72.027 24.1406C72.2306 23.7429 72.3324 23.286 72.3324 22.7699C72.3324 22.2538 72.2306 21.7992 72.027 21.4062C71.8281 21.0133 71.518 20.7079 71.0966 20.4901C70.6799 20.2675 70.1425 20.1562 69.4844 20.1562H67.0696V32.5H64.4347ZM77.3058 32.5V17.9545H82.7603C83.8777 17.9545 84.8152 18.1487 85.5728 18.5369C86.3351 18.9252 86.9104 19.4697 87.2987 20.1705C87.6916 20.8665 87.8881 21.6785 87.8881 22.6065C87.8881 23.5393 87.6893 24.349 87.2915 25.0355C86.8986 25.7173 86.3185 26.2453 85.5515 26.6193C84.7844 26.9886 83.8422 27.1733 82.7248 27.1733H78.8398V24.9858H82.3697C83.0231 24.9858 83.5581 24.8958 83.9748 24.7159C84.3915 24.5312 84.6992 24.2637 84.8981 23.9134C85.1017 23.5582 85.2035 23.1226 85.2035 22.6065C85.2035 22.0904 85.1017 21.6501 84.8981 21.2855C84.6945 20.9162 84.3844 20.6368 83.9677 20.4474C83.551 20.2533 83.0136 20.1562 82.3555 20.1562H79.9407V32.5H77.3058ZM84.82 25.9091L88.4208 32.5H85.4805L81.9435 25.9091H84.82ZM103.311 25.2273C103.311 26.7945 103.017 28.1368 102.43 29.2543C101.848 30.367 101.052 31.2192 100.044 31.8111C99.0399 32.4029 97.9012 32.6989 96.6275 32.6989C95.3538 32.6989 94.2127 32.4029 93.2042 31.8111C92.2004 31.2145 91.4049 30.3598 90.8178 29.2472C90.2354 28.1297 89.9442 26.7898 89.9442 25.2273C89.9442 23.66 90.2354 22.3201 90.8178 21.2074C91.4049 20.09 92.2004 19.2353 93.2042 18.6435C94.2127 18.0516 95.3538 17.7557 96.6275 17.7557C97.9012 17.7557 99.0399 18.0516 100.044 18.6435C101.052 19.2353 101.848 20.09 102.43 21.2074C103.017 22.3201 103.311 23.66 103.311 25.2273ZM100.662 25.2273C100.662 24.1241 100.489 23.1937 100.143 22.4361C99.8022 21.6738 99.3287 21.0985 98.7227 20.7102C98.1166 20.3172 97.4182 20.1207 96.6275 20.1207C95.8368 20.1207 95.1384 20.3172 94.5323 20.7102C93.9263 21.0985 93.4504 21.6738 93.1048 22.4361C92.7638 23.1937 92.5934 24.1241 92.5934 25.2273C92.5934 26.3305 92.7638 27.2633 93.1048 28.0256C93.4504 28.7831 93.9263 29.3584 94.5323 29.7514C95.1384 30.1397 95.8368 30.3338 96.6275 30.3338C97.4182 30.3338 98.1166 30.1397 98.7227 29.7514C99.3287 29.3584 99.8022 28.7831 100.143 28.0256C100.489 27.2633 100.662 26.3305 100.662 25.2273ZM105.802 32.5V17.9545H115.12V20.1634H108.437V24.1122H114.481V26.321H108.437V32.5H105.802ZM120.156 17.9545V32.5H117.521V17.9545H120.156ZM135.459 22.8622H132.803C132.727 22.4266 132.587 22.0407 132.384 21.7045C132.18 21.3636 131.927 21.0748 131.624 20.8381C131.321 20.6013 130.975 20.4238 130.587 20.3054C130.203 20.1823 129.789 20.1207 129.344 20.1207C128.553 20.1207 127.853 20.3196 127.242 20.7173C126.631 21.1103 126.153 21.688 125.807 22.4503C125.462 23.2079 125.289 24.1335 125.289 25.2273C125.289 26.34 125.462 27.2775 125.807 28.0398C126.158 28.7973 126.636 29.3703 127.242 29.7585C127.853 30.142 128.551 30.3338 129.337 30.3338C129.773 30.3338 130.18 30.277 130.559 30.1634C130.942 30.045 131.285 29.8722 131.588 29.6449C131.896 29.4176 132.154 29.1383 132.363 28.8068C132.576 28.4754 132.722 28.0966 132.803 27.6705L135.459 27.6847C135.36 28.3759 135.144 29.0246 134.813 29.6307C134.486 30.2367 134.058 30.7718 133.527 31.2358C132.997 31.6951 132.377 32.0549 131.667 32.3153C130.956 32.571 130.168 32.6989 129.301 32.6989C128.023 32.6989 126.882 32.4029 125.878 31.8111C124.874 31.2192 124.084 30.3646 123.506 29.2472C122.928 28.1297 122.64 26.7898 122.64 25.2273C122.64 23.66 122.931 22.3201 123.513 21.2074C124.096 20.09 124.889 19.2353 125.892 18.6435C126.896 18.0516 128.033 17.7557 129.301 17.7557C130.111 17.7557 130.864 17.8693 131.56 18.0966C132.256 18.3239 132.876 18.6577 133.421 19.098C133.965 19.5336 134.413 20.0687 134.763 20.7031C135.118 21.3329 135.35 22.0526 135.459 22.8622ZM150.869 25.2273C150.869 26.7945 150.576 28.1368 149.989 29.2543C149.406 30.367 148.611 31.2192 147.602 31.8111C146.598 32.4029 145.46 32.6989 144.186 32.6989C142.912 32.6989 141.771 32.4029 140.763 31.8111C139.759 31.2145 138.964 30.3598 138.376 29.2472C137.794 28.1297 137.503 26.7898 137.503 25.2273C137.503 23.66 137.794 22.3201 138.376 21.2074C138.964 20.09 139.759 19.2353 140.763 18.6435C141.771 18.0516 142.912 17.7557 144.186 17.7557C145.46 17.7557 146.598 18.0516 147.602 18.6435C148.611 19.2353 149.406 20.09 149.989 21.2074C150.576 22.3201 150.869 23.66 150.869 25.2273ZM148.22 25.2273C148.22 24.1241 148.047 23.1937 147.702 22.4361C147.361 21.6738 146.887 21.0985 146.281 20.7102C145.675 20.3172 144.977 20.1207 144.186 20.1207C143.395 20.1207 142.697 20.3172 142.091 20.7102C141.485 21.0985 141.009 21.6738 140.663 22.4361C140.322 23.1937 140.152 24.1241 140.152 25.2273C140.152 26.3305 140.322 27.2633 140.663 28.0256C141.009 28.7831 141.485 29.3584 142.091 29.7514C142.697 30.1397 143.395 30.3338 144.186 30.3338C144.977 30.3338 145.675 30.1397 146.281 29.7514C146.887 29.3584 147.361 28.7831 147.702 28.0256C148.047 27.2633 148.22 26.3305 148.22 25.2273ZM153.36 32.5V17.9545H155.995V30.2912H162.402V32.5H153.36ZM164.689 32.5V17.9545H167.324V30.2912H173.73V32.5H164.689Z" fill="#FCFCFC"/>
<defs>
<linearGradient id="paint0_linear_62_49" x1="-7.14124e-07" y1="51" x2="51" y2="-7.14124e-07" gradientUnits="userSpaceOnUse">
<stop stop-color="#91E0AC"/>
<stop offset="1" stop-color="#24AA51"/>
</linearGradient>
</defs>
</svg>
